{
  "accessors": [
    {
      "bufferView": 2,
      "componentType": 5126,
      "count": 29148,
      "max": [
        92.27960205078125,
        90.68123626708984,
        -17.691394805908203
      ],
      "min": [
        -89.44084930419922,
        -91.03921508789063,
        -81.72999572753906
      ],
      "type": "VEC3"
    },
    {
      "bufferView": 2,
      "byteOffset": 349776,
      "componentType": 5126,
      "count": 29148,
      "max": [
        1.0,
        1.0,
        1.0
      ],
      "min": [
        -1.0,
        -1.0,
        -1.0
      ],
      "type": "VEC3"
    },
    {
      "bufferView": 1,
      "componentType": 5126,
      "count": 29148,
      "max": [
        0.29362568259239197,
        0.008469442836940289
      ],
      "min": [
        0.0,
        0.0
      ],
      "type": "VEC2"
    },
    {
      "bufferView": 0,
      "componentType": 5125,
      "count": 172032,
      "type": "SCALAR"
    },
    {
      "bufferView": 2,
      "byteOffset": 699552,
      "componentType": 5126,
      "count": 65532,
      "max": [
        293.34716796875,
        252.96533203125,
        -0.625
      ],
      "min": [
        -290.5081787109375,
        -305.73626708984375,
        -99.69141387939453
      ],
      "type": "VEC3"
    },
    {
      "bufferView": 2,
      "byteOffset": 1485936,
      "componentType": 5126,
      "count": 65532,
      "max": [
        1.0,
        1.0,
        1.0
      ],
      "min": [
        -1.0,
        -1.0,
        -1.0
      ],
      "type": "VEC3"
    },
    {
      "bufferView": 1,
      "byteOffset": 233184,
      "componentType": 5126,
      "count": 65532,
      "max": [
        0.9794492125511169,
        0.7241559624671936
      ],
      "min": [
        0.015625,
        0.0
      ],
      "type": "VEC2"
    },
    {
      "bufferView": 0,
      "byteOffset": 688128,
      "componentType": 5125,
      "count": 370038,
      "type": "SCALAR"
    },
    {
      "bufferView": 2,
      "byteOffset": 2272320,
      "componentType": 5126,
      "count": 13498,
      "max": [
        192.39837646484375,
        252.96536254882813,
        0.0
      ],
      "min": [
        -97.7286148071289,
        -99.32697296142578,
        -99.69141387939453
      ],
      "type": "VEC3"
    },
    {
      "bufferView": 2,
      "byteOffset": 2434296,
      "componentType": 5126,
      "count": 13498,
      "max": [
        1.0,
        1.0,
        1.0
      ],
      "min": [
        -1.0,
        -1.0,
        -1.0
      ],
      "type": "VEC3"
    },
    {
      "bufferView": 1,
      "byteOffset": 757440,
      "componentType": 5126,
      "count": 13498,
      "max": [
        0.9990904331207275,
        0.9995084404945374
      ],
      "min": [
        0.09765625,
        0.0078125
      ],
      "type": "VEC2"
    },
    {
      "bufferView": 0,
      "byteOffset": 2168280,
      "componentType": 5125,
      "count": 75018,
      "type": "SCALAR"
    },
    {
      "bufferView": 2,
      "byteOffset": 2596272,
      "componentType": 5126,
      "count": 35525,
      "max": [
        286.2840881347656,
        245.9122314453125,
        -83.12483978271484
      ],
      "min": [
        -283.4453125,
        -298.6991882324219,
        -99.27516174316406
      ],
      "type": "VEC3"
    },
    {
      "bufferView": 2,
      "byteOffset": 3022572,
      "componentType": 5126,
      "count": 35525,
      "max": [
        1.0,
        1.0,
        0.9999808669090271
      ],
      "min": [
        -1.0,
        -1.0,
        -0.9999808669090271
      ],
      "type": "VEC3"
    },
    {
      "bufferView": 1,
      "byteOffset": 865424,
      "componentType": 5126,
      "count": 35525,
      "max": [
        0.9361392259597778,
        0.9788249135017395
      ],
      "min": [
        0.10546875,
        0.7255859375
      ],
      "type": "VEC2"
    },
    {
      "bufferView": 0,
      "byteOffset": 2468352,
      "componentType": 5125,
      "count": 207360,
      "type": "SCALAR"
    }
  ],
  "asset": {
    "extras": {
      "author": "GeneGrad (https://sketchfab.com/GeneGrad)",
      "license": "CC-BY-4.0 (http://creativecommons.org/licenses/by/4.0/)",
      "source": "https://sketchfab.com/3d-models/chandelier-e4911289087a44a095123fe71a5a54b2",
      "title": "Chandelier"
    },
    "generator": "Sketchfab-12.66.0",
    "version": "2.0"
  },
  "bufferViews": [
    {
      "buffer": 0,
      "byteLength": 3297792,
      "name": "floatBufferViews",
      "target": 34963
    },
    {
      "buffer": 0,
      "byteLength": 1149624,
      "byteOffset": 3297792,
      "byteStride": 8,
      "name": "floatBufferViews",
      "target": 34962
    },
    {
      "buffer": 0,
      "byteLength": 3448872,
      "byteOffset": 4447416,
      "byteStride": 12,
      "name": "floatBufferViews",
      "target": 34962
    }
  ],
  "buffers": [
    {
      "byteLength": 7896288,
      "uri": "scene.bin"
    }
  ],
  "materials": [
    {
      "doubleSided": true,
      "name": "Material_35",
      "pbrMetallicRoughness": {
        "baseColorFactor": [
          0.8928293248917687,
          0.6194970979355857,
          0.37779567479472814,
          1.0
        ],
        "roughnessFactor": 0.2692376678887815
      }
    },
    {
      "doubleSided": true,
      "name": "Material_34",
      "pbrMetallicRoughness": {
        "roughnessFactor": 0.04
      }
    },
    {
      "doubleSided": true,
      "emissiveFactor": [
        1.0,
        1.0,
        0.35573712400074003
      ],
      "name": "Material_36",
      "pbrMetallicRoughness": {
        "metallicFactor": 0.0,
        "roughnessFactor": 0.6
      }
    }
  ],
  "meshes": [
    {
      "name": "chandelier_Material #35_0",
      "primitives": [
        {
          "attributes": {
            "NORMAL": 1,
            "POSITION": 0,
            "TEXCOORD_0": 2
          },
          "indices": 3,
          "material": 0,
          "mode": 4
        }
      ]
    },
    {
      "name": "chandelier_Material #34_0",
      "primitives": [
        {
          "attributes": {
            "NORMAL": 5,
            "POSITION": 4,
            "TEXCOORD_0": 6
          },
          "indices": 7,
          "material": 1,
          "mode": 4
        }
      ]
    },
    {
      "name": "chandelier_Material #34_0",
      "primitives": [
        {
          "attributes": {
            "NORMAL": 9,
            "POSITION": 8,
            "TEXCOORD_0": 10
          },
          "indices": 11,
          "material": 1,
          "mode": 4
        }
      ]
    },
    {
      "name": "chandelier_Material #36_0",
      "primitives": [
        {
          "attributes": {
            "NORMAL": 13,
            "POSITION": 12,
            "TEXCOORD_0": 14
          },
          "indices": 15,
          "material": 2,
          "mode": 4
        }
      ]
    }
  ],
  "nodes": [
    {
      "children": [
        1
      ],
      "matrix": [
        1.0,
        0.0,
        0.0,
        0.0,
        0.0,
        2.220446049250313e-16,
        -1.0,
        0.0,
        0.0,
        1.0,
        2.220446049250313e-16,
        0.0,
        0.0,
        0.0,
        0.0,
        1.0
      ],
      "name": "Sketchfab_model"
    },
    {
      "children": [
        2
      ],
      "matrix": [
        1.0,
        0.0,
        0.0,
        0.0,
        0.0,
        0.0,
        1.0,
        0.0,
        0.0,
        -1.0,
        0.0,
        0.0,
        0.0,
        0.0,
        0.0,
        1.0
      ],
      "name": "2389a4315a464210b128925fdb75076e.fbx"
    },
    {
      "children": [
        3
      ],
      "name": "RootNode"
    },
    {
      "children": [
        4,
        5,
        6,
        7
      ],
      "matrix": [
        1.0,
        0.0,
        0.0,
        0.0,
        0.0,
        2.220446049250313e-16,
        -1.0,
        0.0,
        0.0,
        1.0,
        2.220446049250313e-16,
        0.0,
        0.0,
        0.0,
        0.0,
        1.0
      ],
      "name": "chandelier"
    },
    {
      "mesh": 0,
      "name": "chandelier_Material #35_0"
    },
    {
      "mesh": 1,
      "name": "chandelier_Material #34_0"
    },
    {
      "mesh": 2,
      "name": "chandelier_Material #34_0"
    },
    {
      "mesh": 3,
      "name": "chandelier_Material #36_0"
    }
  ],
  "scene": 0,
  "scenes": [
    {
      "name": "Sketchfab_Scene",
      "nodes": [
        0
      ]
    }
  ]
}
